{"glyphs":{":":{"x_min":0,"x_max":317,"ha":317,"o":"m 93 467 q 93 494 112 513 q 132 532 159 532 q 186 532 205 513 q 224 494 224 467 q 224 439 205 420 q 186 401 159 401 q 132 401 112 420 q 93 439 93 467 z m 93 62 q 93 89 112 108 q 132 128 159 128 q 186 128 205 109 q 224 89 224 62 q 224 35 205 16 q 186 -3 159 -3 q 131 -3 112 16 q 93 35 93 62 z"},"$":{"x_min":0,"x_max":602,"ha":602,"o":"m 256 437 l 256 672 q 203 665 174 636 q 145 607 145 561 q 145 518 173 487 q 200 456 256 437 z m 312 80 q 369 83 403 115 q 437 147 437 198 q 437 245 406 276 q 375 308 312 325 z m 312 -27 q 312 -39 315 -56 q 318 -72 323 -90 l 244 -90 q 250 -70 253 -53 q 256 -37 256 -27 l 256 21 q 210 22 170 30 q 129 38 91 53 l 97 178 q 131 137 172 113 q 212 88 256 82 l 256 343 q 158 376 111 424 q 64 472 64 541 q 64 615 115 665 q 165 714 256 728 q 256 745 253 760 q 250 776 244 791 l 323 791 q 318 780 316 766 q 313 751 312 734 q 354 734 391 731 q 428 728 462 722 l 454 607 q 422 637 387 653 q 351 668 312 671 l 312 420 q 422 383 470 336 q 519 289 519 219 q 519 134 466 84 q 413 33 312 22 z"},"?":{"x_min":0,"x_max":525,"ha":525,"o":"m 97 623 q 99 637 100 653 q 101 668 101 686 q 101 703 100 716 q 99 730 97 743 q 129 753 160 759 q 191 764 222 764 q 327 764 391 699 q 455 635 455 529 q 455 487 447 458 q 438 429 421 406 q 389 364 279 307 q 264 299 257 295 q 217 273 198 251 q 179 228 172 194 q 163 211 158 234 q 154 257 154 286 q 154 327 221 354 q 249 366 264 374 q 322 403 345 437 q 369 470 369 520 q 369 594 330 638 q 290 682 224 682 q 185 682 152 667 q 120 652 97 623 z m 114 62 q 114 89 133 108 q 152 128 179 128 q 206 128 225 109 q 244 89 244 62 q 244 35 225 16 q 206 -3 179 -3 q 152 -3 133 16 q 114 35 114 62 z"},"<":{"x_min":0,"x_max":833,"ha":833,"o":"m 704 497 l 216 298 l 704 100 l 704 37 l 129 273 l 129 323 l 704 559 z"},"'":{"x_min":0,"x_max":149,"ha":149,"o":"m 103 700 l 103 430 l 46 430 l 46 700 z"},"=":{"x_min":0,"x_max":833,"ha":833,"o":"m 709 233 l 709 176 l 124 176 l 124 233 z m 709 420 l 709 363 l 124 363 l 124 420 z"},"a":{"x_min":0,"x_max":447,"ha":447,"o":"m 287 89 l 287 236 l 125 236 q 118 212 115 191 q 111 170 111 152 q 111 108 129 88 q 147 67 185 67 q 203 67 228 72 q 253 78 287 89 z m 287 69 l 205 0 q 191 -1 185 -2 q 179 -2 174 -2 q 105 -2 71 32 q 36 66 36 133 q 36 185 69 218 q 101 250 181 277 l 287 312 l 287 358 q 287 415 264 445 q 241 475 197 475 q 172 475 145 462 q 118 448 83 418 q 86 437 89 460 q 92 483 96 515 q 133 523 163 528 q 192 532 215 532 q 292 532 326 490 q 361 448 361 354 l 361 127 q 361 76 369 50 q 376 24 394 0 l 287 0 z"},"L":{"x_min":0,"x_max":470,"ha":470,"o":"m 62 0 q 79 43 87 91 q 95 139 95 197 l 95 560 q 95 618 87 666 q 79 714 62 757 l 213 757 q 197 715 189 668 q 181 620 181 560 l 181 66 q 270 67 344 81 q 417 94 478 121 q 462 93 451 63 q 439 33 432 0 z"},"3":{"x_min":0,"x_max":602,"ha":602,"o":"m 326 422 q 409 407 458 353 q 507 299 507 222 q 507 125 429 58 q 351 -8 233 -8 q 188 -8 143 2 q 98 12 53 32 l 115 154 q 134 106 171 81 q 208 56 258 56 q 327 56 374 101 q 420 145 420 210 q 420 277 376 316 q 333 355 258 355 q 240 355 229 355 q 219 354 209 354 l 387 688 q 375 688 352 688 q 330 689 320 689 q 207 689 150 676 q 94 663 61 633 l 79 757 l 504 757 z"},";":{"x_min":0,"x_max":317,"ha":317,"o":"m 82 213 l 235 213 q 213 126 177 38 q 141 -50 91 -141 l 10 -141 q 52 -65 73 5 q 95 76 95 134 q 95 153 92 172 q 88 192 82 213 z m 104 467 q 104 494 123 513 q 143 532 170 532 q 197 532 216 513 q 235 494 235 467 q 235 439 216 420 q 197 401 170 401 q 143 401 123 420 q 104 439 104 467 z"},"J":{"x_min":0,"x_max":293,"ha":293,"o":"m 236 757 q 220 715 212 668 q 204 620 204 560 l 204 157 q 204 60 193 10 q 182 -40 155 -80 q 130 -118 106 -137 q 82 -157 61 -157 l -12 -157 q 59 -115 89 -48 q 118 19 118 158 l 118 683 q 83 682 51 676 q 18 670 -15 658 l 16 757 z"},"V":{"x_min":0,"x_max":685,"ha":685,"o":"m 307 -7 l 122 492 q 84 594 50 658 q 15 723 -20 757 l 149 757 q 147 749 146 741 q 145 732 145 724 q 145 701 155 658 q 166 616 183 568 l 344 139 l 511 555 l 512 557 q 560 677 560 717 q 560 725 558 735 q 556 745 552 757 l 713 757 q 683 730 650 672 q 617 614 582 528 l 365 -7 z"},"\"":{"x_min":0,"x_max":288,"ha":288,"o":"m 242 700 l 242 430 l 184 430 l 184 700 z m 103 700 l 103 430 l 46 430 l 46 700 z"},"7":{"x_min":0,"x_max":602,"ha":602,"o":"m 426 689 l 246 689 q 179 689 138 676 q 97 663 65 632 l 65 757 l 534 757 l 310 205 q 291 158 281 115 q 270 71 270 41 q 270 31 271 21 q 273 10 276 0 l 113 0 q 136 21 165 72 q 194 123 225 199 z"},"S":{"x_min":0,"x_max":499,"ha":499,"o":"m 86 10 q 87 31 88 43 q 88 56 88 67 q 88 91 86 117 q 85 143 82 169 q 113 116 150 91 q 187 66 233 66 q 290 66 325 100 q 360 134 360 189 q 360 261 224 336 q 208 345 200 350 q 119 395 91 435 q 62 476 62 536 q 62 632 129 698 q 195 764 293 764 q 322 764 349 757 q 375 750 400 735 q 399 713 398 688 q 398 663 398 613 q 365 652 334 671 q 304 689 272 689 q 222 689 184 650 q 147 611 147 557 q 147 478 290 403 l 302 397 q 386 352 416 312 q 445 273 445 214 q 445 115 376 53 q 308 -8 197 -8 q 173 -8 146 -3 q 119 1 86 10 z"},"}":{"x_min":0,"x_max":500,"ha":500,"o":"m 275 543 l 275 424 q 275 350 302 319 q 329 289 395 289 q 398 289 406 290 q 413 290 417 290 l 417 228 q 413 228 406 229 q 398 229 395 229 q 329 229 302 199 q 275 168 275 94 l 275 -24 q 275 -99 264 -130 q 253 -161 227 -178 q 208 -191 179 -197 q 151 -202 101 -202 l 81 -202 l 81 -141 q 85 -141 92 -142 q 100 -142 103 -142 q 162 -142 183 -119 q 204 -96 204 -22 l 204 95 q 204 176 225 210 q 247 244 301 259 q 247 274 225 308 q 204 342 204 423 l 204 541 q 204 614 183 637 q 161 660 100 660 l 81 660 l 81 721 l 98 721 q 147 721 177 715 q 207 709 227 696 q 253 679 264 648 q 275 617 275 543 z"},"Z":{"x_min":0,"x_max":590,"ha":590,"o":"m 34 0 l 407 685 q 391 687 376 687 q 361 688 347 688 q 268 688 200 669 q 132 649 73 610 q 89 646 103 683 q 117 720 130 757 l 548 757 l 177 71 l 180 71 q 233 69 258 69 q 353 69 420 84 q 487 99 539 131 q 525 93 515 61 q 504 28 495 0 z"},"x":{"x_min":0,"x_max":472,"ha":472,"o":"m 232 211 l 168 107 l 167 105 q 142 66 142 39 q 142 32 143 23 q 145 14 147 0 l 0 0 q 30 29 54 56 q 78 83 94 107 l 199 263 l 108 403 q 86 436 62 466 q 38 497 11 525 l 162 525 q 160 519 159 512 q 158 505 158 497 q 158 480 164 464 q 169 447 181 428 l 242 334 l 302 425 q 312 439 317 458 q 323 478 323 494 q 323 499 322 506 q 321 513 318 525 l 458 525 q 435 502 410 472 q 386 442 360 404 l 276 281 l 398 94 q 424 53 439 34 q 454 15 470 0 l 322 0 q 325 10 327 18 q 328 27 328 34 q 328 45 325 56 q 323 67 318 75 z"},")":{"x_min":0,"x_max":375,"ha":375,"o":"m -2 739 q 26 752 50 758 q 73 764 95 764 q 147 764 179 745 q 211 727 231 684 q 248 648 256 563 q 263 479 263 307 q 263 155 258 79 q 253 3 242 -39 q 227 -96 191 -124 q 155 -151 96 -151 q 74 -151 50 -145 q 26 -139 -2 -126 q 61 -115 92 -99 q 123 -83 141 -55 q 163 -21 173 58 q 182 138 182 307 q 182 476 172 554 q 163 633 140 667 q 122 693 89 710 q 57 727 -2 739 z"},"&":{"x_min":0,"x_max":794,"ha":794,"o":"m 560 126 q 513 59 449 26 q 384 -7 300 -7 q 187 -7 115 46 q 44 99 44 181 q 44 243 83 289 q 121 334 194 360 q 158 385 141 416 q 123 447 123 485 q 123 552 168 595 q 212 637 284 637 q 347 637 389 596 q 431 556 431 494 q 431 451 410 418 q 388 385 346 362 q 405 344 454 317 q 503 289 545 250 q 571 313 585 387 q 598 460 598 543 l 598 569 l 584 569 q 553 569 528 560 q 502 550 484 532 l 484 630 q 511 629 542 629 q 572 629 633 629 q 692 629 721 629 q 750 629 775 630 l 775 523 q 754 547 730 558 q 706 569 675 569 q 675 458 656 364 q 638 271 601 196 q 667 114 704 87 q 740 60 777 60 q 781 60 785 60 q 789 61 798 62 q 782 47 766 30 q 750 14 734 -6 l 726 -6 q 698 -6 666 18 q 634 42 560 126 z m 512 176 q 475 220 416 254 q 357 288 264 318 q 194 292 164 260 q 133 229 133 185 q 133 129 178 95 q 224 62 300 62 q 371 62 424 90 q 477 119 512 176 z m 266 393 q 313 410 335 434 q 358 459 358 494 q 358 527 337 547 q 317 568 284 568 q 247 568 226 547 q 204 527 204 492 q 204 465 219 440 q 235 416 266 393 z"},"_":{"x_min":0,"x_max":500,"ha":500,"o":"m 500 -178 l 500 -236 l 0 -236 l 0 -178 z"},"v":{"x_min":0,"x_max":428,"ha":428,"o":"m 125 525 q 121 512 119 502 q 117 492 117 483 q 117 475 118 466 q 120 458 122 449 l 214 134 l 306 406 q 310 418 312 432 q 314 445 314 457 q 314 474 310 491 q 306 508 297 525 l 442 525 q 418 495 402 466 q 386 437 376 408 l 225 -7 l 181 -7 l 59 388 q 44 438 28 469 q 12 500 -10 525 z"},"O":{"x_min":0,"x_max":840,"ha":840,"o":"m 429 70 q 545 70 620 149 q 695 229 695 354 q 695 411 680 463 q 666 516 639 557 q 597 621 537 655 q 477 689 404 689 q 288 689 214 608 q 139 526 139 399 q 139 341 156 287 q 173 234 206 187 q 245 131 303 101 q 362 70 429 70 z m 421 -7 q 353 -7 291 15 q 229 37 176 81 q 112 134 79 211 q 45 289 45 382 q 45 454 67 516 q 88 578 131 629 q 186 694 263 729 q 340 764 429 764 q 503 764 567 739 q 631 714 681 665 q 737 610 765 539 q 794 468 794 384 q 794 324 778 268 q 763 213 732 163 q 683 84 600 39 q 517 -7 421 -7 z"},"(":{"x_min":0,"x_max":375,"ha":375,"o":"m 377 -126 q 349 -139 325 -145 q 301 -151 279 -151 q 227 -151 195 -132 q 163 -114 143 -71 q 126 -36 119 47 q 112 130 112 307 q 112 459 117 534 q 122 609 133 652 q 148 709 184 737 q 220 764 279 764 q 301 764 325 758 q 349 752 377 739 q 313 728 282 712 q 251 696 234 669 q 212 634 202 555 q 193 475 193 307 q 193 134 202 57 q 212 -20 234 -53 q 252 -79 285 -96 q 319 -114 377 -126 z"},"C":{"x_min":0,"x_max":704,"ha":704,"o":"m 662 47 q 598 21 535 7 q 472 -7 415 -7 q 344 -7 281 15 q 217 37 170 78 q 109 130 77 206 q 45 282 45 373 q 45 464 81 542 q 117 620 184 675 q 238 720 311 742 q 384 765 472 765 q 518 765 562 759 q 606 753 650 741 l 645 614 q 598 654 544 675 q 490 695 430 695 q 299 695 222 612 q 144 528 144 388 q 144 244 219 156 q 294 69 417 69 q 447 69 479 75 q 510 81 542 92 q 572 103 605 123 q 638 143 672 171 z"},"W":{"x_min":0,"x_max":907,"ha":907,"o":"m 250 -7 l 77 565 q 61 618 38 666 q 15 714 -14 757 l 150 757 q 145 746 143 733 q 140 721 140 706 q 140 689 142 675 q 144 660 147 648 l 285 187 l 466 757 l 644 182 l 753 599 q 754 604 757 616 q 772 671 772 704 q 772 717 771 730 q 770 744 768 757 l 920 757 q 890 719 868 675 q 846 632 834 587 l 671 -7 l 621 -7 l 464 499 l 303 -7 z"},"A":{"x_min":0,"x_max":711,"ha":711,"o":"m 543 0 q 549 13 553 27 q 556 41 556 55 q 556 72 553 89 q 549 105 543 121 l 481 282 l 216 282 l 143 130 q 126 95 117 66 q 109 37 109 14 q 109 8 109 5 q 109 2 110 0 l -43 0 q -3 42 31 91 q 64 140 91 194 l 375 764 l 579 266 q 618 169 653 105 q 688 42 724 0 z m 251 354 l 452 354 l 361 588 z"},"f":{"x_min":0,"x_max":291,"ha":291,"o":"m 164 450 l 164 151 q 164 99 171 63 q 178 28 194 0 l 61 0 q 76 27 83 62 q 90 96 90 151 l 90 450 l 34 450 l 90 518 q 89 524 89 531 q 89 538 89 551 q 89 653 128 704 q 167 756 244 756 q 261 756 291 750 q 320 743 333 743 q 338 743 341 743 q 344 744 346 744 l 326 636 q 309 664 285 678 q 262 693 234 693 q 196 693 180 665 q 164 637 164 564 l 164 505 l 286 505 l 286 450 z"},"Q":{"x_min":0,"x_max":840,"ha":840,"o":"m 429 70 q 545 70 620 149 q 695 229 695 354 q 695 411 680 463 q 666 516 639 557 q 597 621 537 655 q 477 689 404 689 q 288 689 214 608 q 139 526 139 399 q 139 341 156 287 q 173 234 206 187 q 245 131 303 101 q 362 70 429 70 z m 599 39 q 641 -10 691 -56 q 742 -103 800 -147 l 734 -159 q 733 -159 731 -160 q 729 -160 727 -160 q 695 -160 630 -118 q 564 -76 480 -2 q 460 -4 445 -6 q 430 -7 417 -7 q 373 -7 331 3 q 289 12 257 29 q 149 88 97 175 q 45 262 45 382 q 45 454 67 516 q 88 578 131 629 q 185 693 260 729 q 336 764 419 764 q 500 764 565 740 q 630 715 681 665 q 736 611 765 540 q 794 468 794 384 q 794 271 744 182 q 693 93 599 39 z"},"w":{"x_min":0,"x_max":631,"ha":631,"o":"m 150 -7 l 62 391 q 53 431 40 463 q 26 496 6 525 l 139 525 q 131 513 128 500 q 124 487 124 472 q 124 460 125 450 q 126 440 128 431 l 189 138 l 305 525 l 354 525 l 451 138 l 521 413 q 526 432 528 451 q 531 470 531 490 q 531 499 529 508 q 527 517 523 525 l 637 525 q 616 495 602 463 q 587 431 578 398 l 470 -7 l 417 -7 l 320 386 l 202 -7 z"},"-":{"x_min":0,"x_max":368,"ha":368,"o":"m 250 308 q 272 308 290 311 q 308 314 324 321 l 324 216 q 308 223 290 226 q 271 229 250 229 l 118 229 q 97 229 78 226 q 60 223 44 216 l 44 321 q 60 314 78 311 q 96 308 118 308 z"},"E":{"x_min":0,"x_max":552,"ha":552,"o":"m 62 0 q 79 43 87 91 q 95 139 95 197 l 95 560 q 95 618 87 666 q 79 714 62 757 l 481 757 q 467 734 453 707 q 438 679 423 645 q 374 667 314 677 q 254 688 181 688 l 181 411 l 426 411 q 409 383 394 357 q 378 331 365 305 q 339 319 294 329 q 250 338 181 345 l 181 66 q 276 66 359 82 q 442 99 517 132 q 498 96 482 62 q 467 29 456 0 z"},"s":{"x_min":0,"x_max":419,"ha":419,"o":"m 57 13 q 60 34 61 58 q 62 82 62 113 l 62 144 q 90 96 123 75 q 156 54 202 54 q 245 54 268 74 q 292 94 292 131 q 292 182 197 228 q 173 239 161 245 q 110 271 87 303 q 64 335 64 379 q 64 447 110 490 q 156 532 231 532 q 261 532 289 528 q 317 523 344 515 q 342 502 342 487 q 341 472 341 456 q 341 441 341 434 q 341 426 342 419 q 320 445 293 458 q 265 471 231 471 q 192 471 168 449 q 144 428 144 393 q 144 368 159 348 q 174 327 202 313 q 212 308 230 299 q 290 269 314 252 q 341 232 356 204 q 371 176 371 144 q 371 75 320 34 q 269 -7 181 -7 q 148 -7 117 -2 q 86 3 57 13 z"},">":{"x_min":0,"x_max":833,"ha":833,"o":"m 704 323 l 704 273 l 129 37 l 129 100 l 617 298 l 129 497 l 129 559 z"},"l":{"x_min":0,"x_max":236,"ha":236,"o":"m 157 132 q 157 96 167 63 q 177 30 197 0 l 55 0 q 69 27 76 59 q 83 92 83 132 l 83 566 q 83 638 77 670 q 70 703 55 728 q 79 733 108 739 q 138 746 189 757 q 173 724 165 686 q 157 648 157 603 z"},"8":{"x_min":0,"x_max":602,"ha":602,"o":"m 303 72 q 365 72 404 111 q 443 150 443 213 q 443 275 403 314 q 363 352 297 352 q 236 352 198 314 q 160 275 160 215 q 160 154 201 113 q 242 72 303 72 z m 303 425 q 354 425 386 461 q 418 497 418 556 q 418 618 387 654 q 356 690 303 690 q 248 690 213 653 q 178 615 178 556 q 178 500 214 462 q 250 425 303 425 z m 190 393 q 143 423 119 464 q 95 505 95 557 q 95 583 102 609 q 109 635 122 658 q 149 707 197 736 q 245 764 300 764 q 388 764 447 706 q 506 647 506 560 q 506 509 481 469 q 456 428 408 402 q 468 372 498 325 q 528 277 528 212 q 528 119 462 56 q 396 -7 298 -7 q 199 -7 135 53 q 72 113 72 206 q 72 266 101 312 q 130 359 190 393 z"},"\\":{"x_min":0,"x_max":301,"ha":301,"o":"m 233 19 l 29 639 q 20 667 5 699 q -9 730 -29 764 l 81 764 q 81 760 80 754 q 80 749 80 740 q 80 723 85 700 q 89 678 98 652 l 303 32 q 313 1 328 -30 q 342 -61 361 -93 l 250 -93 q 251 -86 251 -82 q 252 -77 252 -73 q 252 -55 247 -32 q 243 -10 233 19 z"},"e":{"x_min":0,"x_max":468,"ha":468,"o":"m 136 306 l 359 306 l 359 322 q 359 391 329 429 q 299 468 245 468 q 196 468 167 425 q 138 383 136 306 z m 132 257 l 132 241 q 132 152 164 106 q 196 59 256 59 q 285 59 321 73 q 357 87 406 117 q 396 94 386 68 q 376 42 368 15 q 333 4 300 -1 q 268 -7 241 -7 q 150 -7 98 59 q 46 124 46 238 q 46 373 103 453 q 160 533 254 533 q 334 533 379 469 q 424 404 424 288 q 424 276 424 269 q 423 263 423 257 z"},"b":{"x_min":0,"x_max":535,"ha":535,"o":"m 157 413 l 157 63 q 173 58 189 56 q 205 53 221 53 q 306 53 356 114 q 406 175 406 278 q 406 361 369 407 q 332 452 264 452 q 231 452 204 442 q 177 432 157 413 z m 55 0 q 70 24 77 57 q 83 90 83 165 l 83 179 l 83 578 q 83 642 76 672 q 70 703 55 728 q 79 733 108 739 q 138 746 189 757 q 173 723 165 684 q 157 646 157 603 l 157 436 q 168 449 181 466 q 193 482 206 504 q 230 515 254 520 q 279 525 304 525 q 390 525 441 463 q 491 400 491 294 q 491 211 462 151 q 433 90 374 49 q 337 23 290 11 q 242 0 158 0 z"},"%":{"x_min":0,"x_max":880,"ha":880,"o":"m 576 215 q 576 144 604 98 q 631 52 672 52 q 713 52 738 94 q 763 137 763 209 q 763 285 736 330 q 709 376 666 376 q 627 376 602 331 q 576 286 576 215 z m 661 437 q 739 436 787 376 q 835 317 835 219 q 835 118 786 56 q 738 -7 661 -7 q 593 -7 547 54 q 502 115 502 211 q 502 304 544 364 q 587 424 661 437 z m 324 80 q 313 58 306 36 q 299 14 295 -7 l 206 -7 q 225 15 240 38 q 256 61 268 86 l 556 677 q 566 697 573 719 q 580 741 584 764 l 673 764 q 655 743 640 719 q 625 696 612 671 z m 115 543 q 115 472 143 426 q 170 380 211 380 q 252 380 278 423 q 303 466 303 538 q 303 614 276 659 q 249 704 205 704 q 167 704 141 659 q 115 614 115 543 z m 202 765 q 280 764 328 704 q 376 644 376 546 q 376 445 327 383 q 279 321 202 321 q 133 321 88 382 q 42 444 42 539 q 42 631 85 692 q 127 752 202 765 z"},"m":{"x_min":0,"x_max":766,"ha":766,"o":"m 430 132 q 430 93 437 61 q 444 28 458 0 l 328 0 q 342 28 349 61 q 356 94 356 132 l 356 329 q 356 396 335 427 q 313 459 269 459 q 240 459 213 443 q 187 427 162 394 l 162 132 q 162 93 169 61 q 176 28 190 0 l 61 0 q 75 27 81 60 q 88 93 88 132 l 88 391 q 88 447 78 475 q 68 502 45 525 l 162 525 l 162 424 l 208 500 q 229 516 251 524 q 273 532 298 532 q 348 532 381 502 q 415 472 424 418 l 477 501 q 498 517 520 524 q 542 532 566 532 q 595 532 620 521 q 646 511 664 491 q 682 473 689 449 q 697 425 697 377 l 697 361 l 697 132 q 697 93 704 61 q 711 28 725 0 l 595 0 q 609 28 616 61 q 623 94 623 132 l 623 329 q 623 396 602 427 q 581 459 536 459 q 505 459 479 442 q 452 424 430 391 z"},"#":{"x_min":0,"x_max":769,"ha":769,"o":"m 475 421 l 346 421 l 300 288 l 428 288 z m 450 711 l 369 481 l 496 481 l 578 711 l 648 711 l 568 481 l 718 481 l 697 421 l 545 421 l 499 288 l 660 288 l 639 228 l 477 228 l 396 -1 l 325 -1 l 407 228 l 278 228 l 196 -1 l 126 -1 l 207 228 l 51 228 l 72 288 l 228 288 l 275 421 l 108 421 l 129 481 l 297 481 l 379 711 z"},",":{"x_min":0,"x_max":301,"ha":301,"o":"m 78 213 l 230 213 q 208 125 172 36 q 136 -52 87 -141 l 5 -141 q 47 -64 69 6 q 91 77 91 134 q 91 153 88 172 q 84 192 78 213 z"},"n":{"x_min":0,"x_max":532,"ha":532,"o":"m 162 420 l 162 132 q 162 93 169 61 q 176 28 190 0 l 60 0 q 74 28 81 61 q 88 94 88 132 l 88 391 q 88 447 78 475 q 68 502 45 525 l 162 525 l 162 440 q 178 454 194 470 q 211 486 228 506 q 251 519 273 525 q 295 531 316 531 q 388 531 418 489 q 449 447 449 345 l 449 132 q 449 93 456 61 q 463 28 477 0 l 347 0 q 361 28 368 61 q 375 94 375 132 l 375 314 q 375 396 353 428 q 332 461 280 461 q 251 461 220 450 q 190 440 162 420 z"},"h":{"x_min":0,"x_max":514,"ha":514,"o":"m 157 420 l 157 132 q 157 93 164 61 q 171 28 185 0 l 56 0 q 70 27 76 60 q 83 93 83 132 l 83 566 q 83 638 77 670 q 70 703 55 728 q 79 733 108 739 q 138 746 189 757 q 173 724 165 686 q 157 648 157 603 l 157 440 q 173 454 189 470 q 206 486 223 506 q 247 519 269 525 q 291 531 311 531 q 383 531 413 489 q 444 447 444 345 l 444 132 q 444 93 451 61 q 458 28 472 0 l 343 0 q 356 27 363 60 q 370 93 370 132 l 370 314 q 370 396 349 429 q 327 461 276 461 q 247 461 216 450 q 185 439 157 420 z"},"z":{"x_min":0,"x_max":400,"ha":400,"o":"m 26 0 l 259 460 q 257 460 253 460 q 222 462 206 462 q 152 462 112 451 q 72 440 42 418 l 60 525 l 372 525 l 141 65 l 144 65 q 185 63 203 63 q 266 63 306 72 q 346 81 366 100 l 348 0 z"},"B":{"x_min":0,"x_max":521,"ha":521,"o":"m 62 0 q 79 43 87 91 q 95 139 95 197 l 95 560 q 95 618 87 666 q 79 714 62 757 l 122 757 q 273 757 361 708 q 448 659 448 576 q 448 525 411 480 q 374 434 306 402 q 392 369 438 316 q 483 263 483 196 q 483 142 448 96 q 412 51 350 27 q 314 13 271 6 q 229 0 147 0 z m 180 411 q 259 423 302 462 q 346 501 346 560 q 346 616 302 651 q 259 687 180 694 z m 180 387 l 180 62 l 191 62 q 276 62 328 104 q 380 146 380 213 q 380 273 329 318 q 278 362 180 387 z"},"K":{"x_min":0,"x_max":640,"ha":640,"o":"m 213 757 q 197 715 189 668 q 181 620 181 560 l 181 415 l 411 653 l 412 654 q 470 715 470 743 q 470 748 468 755 q 468 756 468 757 l 634 757 q 601 726 558 686 q 515 647 510 642 l 285 411 l 527 143 q 569 97 606 60 q 643 23 671 0 l 489 0 q 490 2 490 4 q 490 5 490 9 q 490 30 473 61 q 457 91 425 126 l 181 396 l 181 197 q 181 137 189 90 q 197 42 213 0 l 62 0 q 79 43 87 91 q 95 139 95 197 l 95 560 q 95 618 87 666 q 79 714 62 757 z"},"R":{"x_min":0,"x_max":574,"ha":574,"o":"m 181 357 q 286 369 336 409 q 387 449 387 519 q 387 599 333 645 q 280 691 181 696 z m 181 197 q 181 137 189 90 q 197 42 213 0 l 62 0 q 79 43 87 91 q 95 139 95 197 l 95 560 q 95 618 87 666 q 79 714 62 757 l 167 757 q 318 757 400 698 q 482 640 482 532 q 482 460 438 411 q 394 362 300 331 q 362 243 433 160 q 504 77 583 0 l 494 0 q 465 0 392 80 q 319 160 181 343 z"},"T":{"x_min":0,"x_max":565,"ha":565,"o":"m 327 691 l 327 197 q 327 139 335 91 q 343 43 360 0 l 209 0 q 226 43 234 91 q 242 139 242 197 l 242 691 q 170 688 113 675 q 55 662 5 637 q 15 666 24 696 q 33 726 41 757 l 572 757 q 556 735 544 708 q 532 681 524 650 q 492 669 442 680 q 392 690 327 691 z"},"P":{"x_min":0,"x_max":495,"ha":495,"o":"m 181 197 q 181 137 189 90 q 197 42 213 0 l 62 0 q 79 43 87 91 q 95 139 95 197 l 95 560 q 95 618 87 666 q 79 714 62 757 l 140 757 q 207 757 256 750 q 306 743 332 729 q 394 697 425 647 q 456 598 456 532 q 456 448 401 392 q 346 336 262 336 q 243 336 223 337 q 203 338 181 341 z m 181 369 q 267 372 312 414 q 358 456 358 533 q 358 613 312 656 q 267 698 181 699 z"},"|":{"x_min":0,"x_max":500,"ha":500,"o":"m 281 764 l 281 -236 l 219 -236 l 219 764 z"},"t":{"x_min":0,"x_max":323,"ha":323,"o":"m 157 443 l 157 200 q 157 108 173 86 q 188 63 240 63 q 259 63 277 66 q 294 69 312 76 q 304 64 288 38 q 271 12 263 0 q 249 -3 232 -5 q 215 -7 195 -7 q 152 -7 131 0 q 110 7 98 23 q 89 36 86 61 q 82 87 82 167 l 82 443 l -8 443 q 42 505 81 554 q 120 603 157 653 l 157 505 l 316 505 l 316 443 z"},"M":{"x_min":0,"x_max":917,"ha":917,"o":"m 177 588 l 177 197 q 177 139 185 91 q 193 43 210 0 l 65 0 q 82 42 89 90 q 97 137 97 197 l 97 660 l 10 755 l 167 755 q 171 732 190 701 q 209 670 242 634 l 459 394 l 716 693 q 729 707 736 722 q 743 737 746 755 l 878 755 l 850 722 q 834 704 826 679 q 818 655 818 629 l 818 197 q 818 139 826 91 q 834 43 851 0 l 700 0 q 717 43 725 91 q 733 139 733 197 l 733 587 l 461 277 z"},"g":{"x_min":0,"x_max":469,"ha":469,"o":"m 237 224 q 285 224 313 253 q 341 282 341 332 q 341 394 307 434 q 273 475 223 475 q 176 475 148 444 q 120 414 120 362 q 120 302 153 263 q 187 224 237 224 z m 129 38 q 124 13 121 -6 q 118 -25 118 -40 q 118 -76 140 -88 q 162 -100 230 -100 q 297 -100 330 -81 q 363 -62 363 -24 q 363 13 340 26 q 318 40 238 40 q 226 40 182 39 q 149 39 129 38 z m 161 178 q 144 160 136 149 q 128 138 128 129 q 128 116 152 110 q 176 105 242 105 q 264 105 289 105 q 313 105 342 106 q 380 99 405 69 q 429 40 429 1 q 429 -39 393 -80 q 357 -121 286 -161 q 259 -164 233 -165 q 206 -166 178 -166 q 115 -166 86 -155 q 57 -144 57 -120 q 57 -113 61 -80 q 64 -47 66 -21 l 82 -2 q 111 30 117 39 q 89 41 74 54 q 60 67 60 92 q 60 99 61 107 q 62 115 63 123 q 86 137 107 152 q 127 167 148 183 q 96 209 71 248 q 46 287 46 342 q 46 426 99 480 q 152 533 236 533 q 264 533 290 525 q 315 517 342 501 l 472 501 l 472 441 l 388 441 q 403 417 410 395 q 417 372 417 347 q 417 267 365 219 q 313 171 225 171 q 211 171 195 173 q 179 174 161 178 z"},"j":{"x_min":0,"x_max":231,"ha":231,"o":"m 116 591 q 91 591 74 610 q 58 628 58 657 q 58 686 74 704 q 91 722 116 722 q 141 722 157 704 q 174 686 174 657 q 174 628 157 610 q 141 591 116 591 z m 153 32 l 153 9 q 153 -52 140 -85 q 127 -119 97 -149 q 86 -161 80 -164 q 73 -167 60 -167 l 0 -167 q 43 -137 61 -84 q 79 -31 79 86 l 79 394 q 79 432 72 464 q 65 497 51 525 l 181 525 q 167 497 160 464 q 153 432 153 394 z"},"i":{"x_min":0,"x_max":250,"ha":250,"o":"m 125 591 q 100 591 83 610 q 67 628 67 657 q 67 686 83 704 q 100 722 125 722 q 150 722 167 704 q 183 686 183 657 q 183 628 167 610 q 150 591 125 591 z m 88 394 q 88 432 81 464 q 74 497 60 525 l 190 525 q 176 497 169 464 q 162 432 162 394 l 162 132 q 162 93 169 61 q 176 28 190 0 l 60 0 q 74 28 81 61 q 88 94 88 132 z"},"y":{"x_min":0,"x_max":458,"ha":458,"o":"m 240 183 l 330 400 q 339 422 344 442 q 348 462 348 479 q 348 489 345 500 q 342 511 336 525 l 464 525 q 441 489 397 381 q 385 353 379 337 l 274 87 q 234 -8 199 -74 q 163 -140 137 -167 l 30 -167 q 72 -130 107 -83 q 141 -35 167 22 l 201 97 l 51 410 q 38 438 19 467 q 0 495 -25 525 l 122 525 q 119 514 118 504 q 116 494 116 486 q 116 470 120 453 q 124 436 131 421 z"},"@":{"x_min":0,"x_max":1000,"ha":1000,"o":"m 631 412 l 659 471 l 713 471 l 644 194 q 641 182 640 172 q 638 163 638 155 q 638 133 652 122 q 665 111 692 111 q 714 111 741 123 q 768 134 791 154 q 834 191 859 250 q 884 309 884 374 q 884 504 788 583 q 693 662 535 662 q 453 662 383 637 q 312 611 256 562 q 188 502 153 424 q 118 346 118 251 q 118 167 148 103 q 177 39 239 -10 q 288 -49 356 -71 q 424 -92 500 -92 q 584 -92 663 -68 q 743 -44 808 0 l 830 -32 q 758 -85 677 -113 q 596 -140 508 -140 q 415 -140 338 -117 q 261 -95 203 -50 q 128 7 92 83 q 55 159 55 255 q 55 334 80 406 q 104 477 153 537 q 224 623 323 667 q 423 712 545 712 q 625 712 697 691 q 768 669 818 630 q 881 582 913 518 q 946 454 946 380 q 946 297 915 229 q 885 161 826 114 q 792 87 754 73 q 715 59 674 59 q 625 59 601 78 q 577 97 577 135 q 577 136 578 140 q 578 144 578 146 q 553 104 516 81 q 479 59 433 59 q 358 59 319 101 q 280 142 280 221 q 280 333 347 411 q 414 489 509 489 q 553 489 584 469 q 614 450 631 412 z m 587 231 l 616 349 q 608 393 581 417 q 554 442 515 442 q 444 442 396 378 q 348 313 348 218 q 348 164 373 135 q 398 106 444 106 q 494 106 533 140 q 573 175 587 231 z"},".":{"x_min":0,"x_max":301,"ha":301,"o":"m 85 62 q 85 89 104 108 q 123 128 150 128 q 177 128 196 108 q 216 89 216 62 q 216 35 196 16 q 177 -3 150 -3 q 123 -3 104 16 q 85 35 85 62 z"},"p":{"x_min":0,"x_max":545,"ha":545,"o":"m 162 404 l 162 115 q 191 101 216 94 q 241 87 264 87 q 334 87 373 138 q 412 189 412 281 q 412 362 379 403 q 346 445 281 445 q 248 445 218 435 q 188 424 162 404 z m 162 -35 q 162 -73 169 -106 q 176 -139 190 -167 l 61 -167 q 75 -140 81 -107 q 88 -74 88 -35 l 88 391 q 88 447 78 475 q 68 502 45 525 l 162 525 l 162 436 q 203 480 242 503 q 281 526 316 526 q 400 526 449 460 q 498 394 498 280 q 498 157 440 86 q 382 15 282 15 q 272 15 262 16 q 252 17 242 18 q 230 26 203 45 q 176 63 162 73 z"},"X":{"x_min":0,"x_max":644,"ha":644,"o":"m 322 309 l 230 154 q 201 105 188 71 q 175 37 175 10 l 175 0 l 0 0 q 41 38 81 87 q 121 137 159 198 l 276 384 l 135 609 q 104 659 76 695 q 48 731 19 757 l 184 757 q 183 753 183 749 q 182 744 182 737 q 182 719 194 688 q 206 658 227 624 l 325 464 l 425 636 q 442 666 450 694 q 459 723 459 749 l 459 757 l 609 757 q 577 716 549 676 q 521 635 496 594 l 371 386 l 525 142 q 557 92 584 58 q 612 24 642 0 l 452 0 q 457 11 459 21 q 461 32 461 41 q 461 60 455 79 q 449 97 437 118 z"},"*":{"x_min":0,"x_max":532,"ha":532,"o":"m 375 503 l 493 371 l 320 407 l 267 241 l 211 408 l 41 371 l 158 499 l 41 633 l 211 594 l 267 764 l 322 597 l 494 633 z m 184 502 q 184 469 208 444 q 233 420 266 420 q 301 420 325 444 q 349 468 349 502 q 349 536 325 560 q 300 584 266 584 q 233 584 208 560 q 184 535 184 502 z"},"Y":{"x_min":0,"x_max":549,"ha":549,"o":"m 317 371 l 317 197 q 317 139 325 91 q 333 43 350 0 l 199 0 q 215 42 223 90 q 231 137 231 197 l 231 371 l 74 627 q 42 679 21 707 q 0 735 -21 757 l 134 757 q 133 752 132 748 q 132 744 132 740 q 132 718 144 687 q 156 656 181 616 l 282 453 l 403 647 q 421 675 429 696 q 438 717 438 734 q 438 740 437 745 q 436 751 433 757 l 592 757 q 564 727 538 693 q 512 659 485 620 z"},"c":{"x_min":0,"x_max":447,"ha":447,"o":"m 375 1 q 354 -3 335 -6 q 315 -8 297 -8 q 185 -8 114 64 q 44 136 44 252 q 44 374 129 454 q 214 533 345 533 q 365 533 388 530 q 411 526 436 520 l 435 509 q 426 447 422 416 q 403 443 373 457 q 344 470 305 470 q 227 470 174 411 q 122 353 122 264 q 122 176 174 125 q 226 74 315 74 q 340 74 367 79 q 393 83 423 93 q 408 65 384 18 z"},"!":{"x_min":0,"x_max":333,"ha":333,"o":"m 167 169 q 148 211 138 257 q 128 304 128 350 l 128 572 q 128 615 116 663 q 104 710 82 757 l 253 757 q 231 710 219 662 q 207 614 207 572 l 207 350 q 207 305 197 258 q 187 212 167 169 z m 102 62 q 102 89 121 108 q 140 128 167 128 q 194 128 213 108 q 233 89 233 62 q 233 35 213 16 q 194 -3 167 -3 q 140 -3 121 16 q 102 35 102 62 z"},"/":{"x_min":0,"x_max":301,"ha":301,"o":"m 68 19 q 59 -8 54 -31 q 49 -53 49 -69 q 49 -72 49 -77 q 50 -82 51 -93 l -59 -93 q -40 -61 -26 -30 q -12 1 -1 32 l 203 652 q 212 681 217 704 q 222 727 222 744 q 222 748 222 753 q 221 757 220 764 l 331 764 q 311 729 296 699 q 282 668 272 639 z"},"[":{"x_min":0,"x_max":375,"ha":375,"o":"m 137 -144 l 137 757 l 312 757 l 312 692 l 211 692 l 211 -79 l 312 -79 l 312 -144 z"},"6":{"x_min":0,"x_max":602,"ha":602,"o":"m 289 67 q 355 67 396 110 q 436 153 436 224 q 436 292 397 333 q 358 375 295 375 q 228 375 186 330 q 144 284 144 213 q 144 148 185 108 q 225 67 289 67 z m 235 422 q 251 431 270 436 q 288 440 309 440 q 402 440 461 382 q 520 323 520 231 q 520 192 509 156 q 498 121 476 89 q 444 44 394 19 q 343 -7 287 -7 q 190 -7 126 54 q 62 115 62 206 q 62 293 184 477 q 199 500 207 511 q 275 614 303 665 q 332 716 348 757 l 506 757 q 457 722 413 674 q 369 625 323 556 z"},"r":{"x_min":0,"x_max":375,"ha":375,"o":"m 162 437 q 184 458 208 479 q 231 499 257 519 q 274 526 289 530 q 305 533 320 533 q 337 533 354 530 q 370 527 385 521 q 381 500 378 476 q 375 453 372 424 q 344 437 321 443 q 297 449 276 449 q 247 449 218 440 q 189 430 162 411 l 162 132 q 162 93 169 61 q 176 28 190 0 l 60 0 q 74 28 81 61 q 88 94 88 132 l 88 391 q 88 447 78 475 q 68 502 45 525 l 162 525 z"},"2":{"x_min":0,"x_max":602,"ha":602,"o":"m 42 0 l 326 399 q 361 448 379 490 q 396 531 396 566 q 396 621 361 654 q 326 688 270 688 q 211 688 177 656 q 142 624 142 571 q 142 557 144 540 q 146 522 152 495 l 70 577 q 75 663 132 713 q 188 764 278 764 q 367 764 423 712 q 478 660 478 577 q 478 535 459 489 q 439 442 397 383 l 171 71 q 344 73 409 86 q 474 99 509 129 q 500 78 493 40 q 487 1 487 0 z"},"{":{"x_min":0,"x_max":500,"ha":500,"o":"m 419 659 q 415 659 408 660 q 400 660 397 660 q 338 660 317 637 q 296 614 296 541 l 296 423 q 296 342 275 308 q 253 274 199 259 q 253 244 275 210 q 296 176 296 95 l 296 -23 q 296 -96 317 -118 q 338 -141 400 -141 l 419 -141 l 419 -202 l 402 -202 q 354 -202 324 -196 q 294 -190 274 -177 q 247 -159 236 -128 q 225 -97 225 -24 l 225 95 q 225 169 198 199 q 171 229 106 229 q 103 229 95 229 q 88 228 84 228 l 84 290 q 88 290 95 290 q 103 289 106 289 q 171 289 198 319 q 225 349 225 424 l 225 543 q 225 618 236 648 q 247 679 274 696 q 294 709 324 715 q 353 721 402 721 l 419 721 z"},"9":{"x_min":0,"x_max":602,"ha":602,"o":"m 424 470 q 430 497 433 517 q 436 538 436 551 q 436 614 398 652 q 360 689 297 689 q 231 689 190 648 q 149 607 149 544 q 149 484 186 446 q 223 407 281 407 q 319 407 356 423 q 393 439 424 470 z m 134 0 q 173 43 205 86 q 236 128 262 173 l 376 372 q 350 354 322 344 q 294 335 266 335 q 178 335 123 392 q 68 449 68 541 q 68 587 85 627 q 102 668 133 698 q 166 730 208 747 q 250 764 296 764 q 396 764 456 707 q 517 649 517 555 q 517 523 510 490 q 503 456 490 422 q 475 382 418 292 q 361 201 334 151 q 308 104 298 74 q 287 45 287 22 q 287 16 288 11 q 289 5 290 0 z"}," ":{"x_min":0,"x_max":301,"ha":301,"o":""},"I":{"x_min":0,"x_max":273,"ha":273,"o":"m 213 757 q 197 715 189 668 q 181 620 181 560 l 181 197 q 181 137 189 90 q 197 42 213 0 l 62 0 q 79 43 87 91 q 95 139 95 197 l 95 560 q 95 618 87 666 q 79 714 62 757 z"},"H":{"x_min":0,"x_max":711,"ha":711,"o":"m 532 348 l 181 348 l 181 197 q 181 137 189 90 q 197 42 213 0 l 62 0 q 79 43 87 91 q 95 139 95 197 l 95 560 q 95 618 87 666 q 79 714 62 757 l 213 757 q 197 715 189 668 q 181 620 181 560 l 181 418 l 532 418 l 532 560 q 532 620 524 668 q 517 715 500 757 l 650 757 q 634 715 626 668 q 618 620 618 560 l 618 197 q 618 137 626 90 q 634 42 650 0 l 500 0 q 517 42 524 90 q 532 137 532 197 z"},"4":{"x_min":0,"x_max":602,"ha":602,"o":"m 138 363 l 349 363 l 349 625 q 301 559 248 493 q 195 428 138 363 z m 426 162 q 426 98 434 63 q 443 29 462 0 l 313 0 q 332 29 341 63 q 349 97 349 162 l 349 294 l 48 294 l 48 372 q 62 375 74 385 q 86 394 100 411 l 303 662 q 333 699 345 719 q 358 739 364 757 l 435 757 q 431 728 428 706 q 426 685 426 672 l 426 363 l 479 363 q 514 363 532 367 q 550 372 565 381 l 565 378 q 563 331 563 310 q 563 302 563 286 q 564 271 564 264 q 544 279 523 286 q 502 294 480 294 l 426 294 z"},"~":{"x_min":0,"x_max":833,"ha":833,"o":"m 747 306 q 698 271 651 253 q 604 236 558 236 q 537 236 514 240 q 491 245 465 253 q 450 258 422 268 q 324 303 275 303 q 234 303 190 285 q 146 267 87 225 l 87 290 q 138 326 186 343 q 233 361 276 361 q 303 361 333 355 q 362 349 418 329 q 425 327 439 321 q 517 293 559 293 q 600 293 644 311 q 688 329 747 370 z"},"D":{"x_min":0,"x_max":653,"ha":653,"o":"m 181 59 q 330 65 418 148 q 507 231 507 365 q 507 503 416 594 q 325 686 181 689 z m 62 0 q 79 43 87 91 q 95 139 95 197 l 95 560 q 95 618 87 666 q 79 714 62 757 l 141 757 q 233 757 290 747 q 346 737 394 714 q 492 667 549 575 q 605 484 605 371 q 605 199 485 99 q 366 0 157 0 z"},"^":{"x_min":0,"x_max":1000,"ha":1000,"o":"m 539 712 l 793 440 l 716 440 l 500 654 l 284 440 l 206 440 l 460 712 z"},"0":{"x_min":0,"x_max":602,"ha":602,"o":"m 129 396 q 129 245 178 153 q 228 61 306 61 q 383 61 427 137 q 470 213 470 349 q 470 515 423 604 q 375 693 287 693 q 216 693 172 612 q 129 532 129 396 z m 288 764 q 414 762 488 657 q 563 552 563 375 q 563 287 542 217 q 521 147 479 93 q 440 43 394 18 q 348 -7 296 -7 q 184 -7 111 97 q 38 202 38 368 q 38 531 105 636 q 172 742 288 764 z"},"F":{"x_min":0,"x_max":500,"ha":500,"o":"m 181 418 l 432 418 q 416 388 404 362 q 392 335 382 312 q 332 331 282 341 q 232 351 181 353 l 181 197 q 181 137 189 90 q 197 42 213 0 l 62 0 q 79 43 87 91 q 95 139 95 197 l 95 560 q 95 618 87 666 q 79 714 62 757 l 481 757 q 467 734 453 707 q 438 679 423 645 q 382 664 324 674 q 265 685 181 688 z"},"`":{"x_min":0,"x_max":500,"ha":500,"o":"m 122 756 l 220 756 l 320 586 l 261 586 z"},"k":{"x_min":0,"x_max":464,"ha":464,"o":"m 157 299 l 286 442 q 304 461 314 483 q 323 504 323 525 l 461 525 q 426 497 399 473 q 373 449 356 429 l 240 297 l 366 117 q 388 86 417 56 q 447 25 481 0 l 313 0 q 314 7 315 13 q 316 19 316 24 q 316 39 310 55 q 305 72 295 85 l 157 280 l 157 132 q 157 93 164 61 q 171 28 185 0 l 56 0 q 70 27 76 60 q 83 93 83 132 l 83 566 q 83 638 77 670 q 70 703 55 728 q 79 733 108 739 q 138 746 189 757 q 173 724 165 686 q 157 648 157 603 z"},"u":{"x_min":0,"x_max":532,"ha":532,"o":"m 370 106 l 370 394 q 370 433 363 465 q 356 498 343 525 l 472 525 q 458 497 451 464 q 444 432 444 394 l 444 142 q 444 80 454 52 q 464 23 488 0 l 370 0 l 370 86 q 350 69 330 49 q 310 29 289 6 q 275 0 259 -3 q 242 -6 224 -6 q 146 -6 115 35 q 83 76 83 180 l 83 394 q 83 433 76 465 q 70 498 56 525 l 185 525 q 171 497 164 464 q 157 432 157 394 l 157 211 q 157 128 179 96 q 200 65 254 65 q 284 65 312 75 q 340 85 370 106 z"},"]":{"x_min":0,"x_max":375,"ha":375,"o":"m 236 757 l 236 -144 l 61 -144 l 61 -79 l 162 -79 l 162 692 l 61 692 l 61 757 z"},"U":{"x_min":0,"x_max":755,"ha":755,"o":"m 578 108 q 510 51 448 22 q 386 -7 331 -7 q 284 -7 235 14 q 186 35 153 69 q 134 89 122 110 q 110 130 100 159 q 97 169 95 198 q 93 227 93 275 l 93 560 q 93 618 85 666 q 77 714 60 757 l 211 757 q 194 714 186 666 q 178 618 178 560 l 178 311 q 178 195 228 135 q 277 75 372 75 q 413 75 452 91 q 491 106 523 136 q 550 161 562 198 q 573 234 573 323 l 573 560 q 573 620 565 668 q 558 715 541 757 l 691 757 q 675 715 667 668 q 659 620 659 560 l 659 197 q 659 137 667 90 q 675 42 691 0 l 578 0 z"},"o":{"x_min":0,"x_max":574,"ha":574,"o":"m 421 36 q 384 14 349 4 q 314 -7 279 -7 q 237 -7 197 10 q 157 27 124 58 q 84 97 64 149 q 44 202 44 266 q 44 382 114 457 q 184 532 290 532 q 394 532 462 456 q 530 379 530 260 q 530 195 503 141 q 477 86 421 36 z m 380 83 q 414 115 431 158 q 448 200 448 252 q 448 339 394 399 q 340 459 264 459 q 249 459 234 456 q 219 453 203 447 q 166 424 147 381 q 128 338 128 278 q 128 181 175 124 q 222 66 299 66 q 315 66 336 70 q 356 74 380 83 z"},"N":{"x_min":0,"x_max":778,"ha":778,"o":"m 174 197 q 174 137 182 90 q 189 42 206 0 l 62 0 q 79 43 87 91 q 95 139 95 197 l 95 675 l 19 757 l 188 757 q 188 720 249 638 q 256 627 260 622 l 603 153 l 603 560 q 603 620 595 668 q 587 715 571 757 l 714 757 q 698 715 690 668 q 682 620 682 560 l 682 130 q 682 92 688 58 q 693 24 703 0 l 580 0 q 581 2 581 4 q 581 5 581 9 q 581 22 574 38 q 568 54 556 70 l 174 594 z"},"+":{"x_min":0,"x_max":833,"ha":833,"o":"m 446 596 l 446 327 l 709 327 l 709 270 l 446 270 l 446 0 l 388 0 l 388 270 l 124 270 l 124 327 l 388 327 l 388 596 z"},"G":{"x_min":0,"x_max":789,"ha":789,"o":"m 619 72 l 619 188 q 619 257 609 302 q 599 347 577 384 l 747 384 q 725 363 715 315 q 704 267 704 188 l 704 25 q 640 9 582 1 q 524 -7 472 -7 q 272 -7 158 92 q 44 191 44 366 q 44 460 81 540 q 119 619 192 680 q 241 720 312 743 q 383 765 463 765 q 518 765 574 758 q 631 750 696 734 l 690 596 q 643 644 580 668 q 517 693 441 693 q 305 693 224 611 q 143 529 143 391 q 143 233 237 146 q 332 59 502 59 q 534 59 563 62 q 592 65 619 72 z"},"q":{"x_min":0,"x_max":535,"ha":535,"o":"m 374 131 l 374 455 q 352 461 333 464 q 313 467 298 467 q 218 467 170 408 q 122 350 122 253 q 122 175 156 132 q 190 90 254 90 q 292 90 323 100 q 353 110 374 131 z m 482 525 q 465 497 457 464 q 448 432 448 394 l 448 -35 q 448 -73 455 -106 q 462 -139 476 -167 l 347 -167 q 361 -140 367 -107 q 374 -74 374 -35 l 374 111 l 319 39 q 294 26 270 20 q 246 13 222 13 q 142 13 91 73 q 39 132 39 226 q 39 371 128 452 q 217 533 375 533 q 396 533 423 531 q 450 529 482 525 z"},"d":{"x_min":0,"x_max":554,"ha":554,"o":"m 393 99 l 393 412 q 360 427 331 435 q 301 442 275 442 q 244 442 217 430 q 189 418 162 394 q 144 356 135 320 q 127 284 127 248 q 127 161 165 114 q 204 66 273 66 q 296 66 327 74 q 357 83 393 99 z m 393 566 l 393 578 q 393 642 386 672 q 380 703 365 728 q 389 733 418 739 q 447 746 499 757 q 483 723 475 684 q 467 646 467 603 l 467 179 q 467 108 476 71 q 486 35 507 0 l 393 0 l 393 80 q 372 60 352 43 q 332 27 312 13 q 292 5 275 1 q 258 -3 242 -3 q 157 -3 100 62 q 44 126 44 227 q 44 294 69 347 q 93 401 144 445 q 179 475 221 492 q 264 510 300 510 q 319 510 343 505 q 366 500 393 489 z"},"1":{"x_min":0,"x_max":602,"ha":602,"o":"m 266 621 l 172 621 l 343 764 l 343 162 q 343 98 351 63 q 360 29 379 0 l 230 0 q 249 29 258 63 q 266 98 266 162 z"},"5":{"x_min":0,"x_max":602,"ha":602,"o":"m 142 351 l 142 653 q 142 686 137 712 q 131 738 121 757 l 502 757 q 490 724 472 667 l 467 651 q 445 672 408 681 q 371 690 288 690 l 217 690 l 217 441 q 243 445 258 447 q 272 448 284 448 q 379 448 439 389 q 498 330 498 236 q 498 128 424 60 q 351 -8 232 -8 q 179 -8 134 6 q 88 21 50 49 q 63 70 78 97 q 93 123 112 160 q 135 112 173 87 q 210 62 259 62 q 329 62 371 105 q 412 148 412 219 q 412 289 367 328 q 322 368 243 368 q 221 368 196 364 q 170 359 142 351 z"}}}
